<?xml version="1.0" standalone="no"?><!DOCTYPE svg PUBLIC "-//W3C//DTD SVG 1.1//EN" "http://www.w3.org/Graphics/SVG/1.1/DTD/svg11.dtd"><svg t="1516600081164" class="icon" style="" viewBox="0 0 1195 1024" version="1.1" xmlns="http://www.w3.org/2000/svg" p-id="2936" xmlns:xlink="http://www.w3.org/1999/xlink" width="37.34375" height="32"><defs><style type="text/css"></style></defs><path d="M294.755 272v480h-160.084c-44.137 0-79.916-36.078-79.916-79.262v-321.475c0-43.776 35.413-79.262 79.916-79.262h160.084zM550.767 79.991c35.339-26.505 63.988-11.53 63.988 32.207v799.604c0 44.292-28.398 58.899-63.988 32.207l-256.012-192.009v-480l256.012-192.009zM1001.445 893.838c210.883-210.883 210.883-552.793 0-763.675-23.433-23.431-61.421-23.431-84.853 0-23.433 23.433-23.433 61.421 0 84.853 164.020 164.020 164.020 429.95 0 593.97-23.433 23.433-23.433 61.421 0 84.853 23.431 23.433 61.421 23.433 84.853 0v0zM831.74 724.132c117.157-117.158 117.157-307.107 0-424.265-23.433-23.433-61.421-23.433-84.853 0-23.431 23.431-23.431 61.421 0 84.853 70.295 70.295 70.295 184.265 0 254.558-23.431 23.433-23.431 61.421 0 84.853 23.433 23.433 61.421 23.433 84.853 0v0z" p-id="2937" fill="#ffffff"></path></svg>