<?xml version="1.0" standalone="no"?><!DOCTYPE svg PUBLIC "-//W3C//DTD SVG 1.1//EN" "http://www.w3.org/Graphics/SVG/1.1/DTD/svg11.dtd"><svg t="1516600097401" class="icon" style="" viewBox="0 0 1195 1024" version="1.1" xmlns="http://www.w3.org/2000/svg" p-id="3105" xmlns:xlink="http://www.w3.org/1999/xlink" width="37.34375" height="32"><defs><style type="text/css"></style></defs><path d="M294.755 272v480h-160.084c-44.137 0-79.916-36.078-79.916-79.262v-321.475c0-43.776 35.413-79.262 79.916-79.262h160.084zM930.734 427.147l-113.187-113.186c-23.278-23.278-61.372-23.382-84.803 0.050-23.595 23.595-23.453 61.399-0.050 84.803l113.186 113.186-113.186 113.186c-23.278 23.278-23.382 61.372 0.050 84.803 23.595 23.595 61.399 23.453 84.803 0.050l113.187-113.186 113.186 113.186c23.278 23.278 61.372 23.382 84.803-0.050 23.595-23.595 23.453-61.399 0.050-84.803l-113.187-113.186 113.187-113.186c23.278-23.278 23.382-61.372-0.050-84.803-23.595-23.595-61.399-23.453-84.803-0.050l-113.186 113.186zM550.767 79.991c35.339-26.505 63.988-11.53 63.988 32.207v799.604c0 44.292-28.398 58.899-63.988 32.207l-256.012-192.009v-480l256.012-192.009z" p-id="3106" fill="#ffffff"></path></svg>